<svg width="61" height="62" viewBox="0 0 61 62" fill="none" xmlns="http://www.w3.org/2000/svg">
<g filter="url(#filter0_d_2_1885)">
<path d="M56.9989 25.0526C56.3368 14.1031 49.211 4.93298 39.4408 1.39073C39.2422 1.31624 39.0684 1.56039 39.2049 1.72592C43.3307 6.72479 46.0784 15.1956 46.3474 25.0774C46.3474 25.1933 46.4425 25.2843 46.5584 25.2843H56.7796C56.9038 25.2843 57.0031 25.1809 56.9948 25.0567L56.9989 25.0526Z" fill="#18306C"/>
<path d="M21.136 1.5523C11.5894 5.20213 4.66212 14.2647 4.00829 25.0528C4.00002 25.1769 4.09933 25.2804 4.22348 25.2804H14.1509C14.2667 25.2804 14.3578 25.1894 14.3619 25.0735C14.6268 15.2951 17.3248 6.90291 21.3802 1.88335C21.5168 1.71782 21.3388 1.47367 21.1402 1.5523H21.136Z" fill="#18306C"/>
<path d="M28.7908 0.00190062C22.6415 1.57853 17.6468 12.2756 17.2578 25.0583C17.2578 25.1783 17.353 25.2818 17.473 25.2818H28.8446C28.9605 25.2818 29.0556 25.1866 29.0556 25.0707V0.217084C29.0556 0.0805255 28.9274 -0.027067 28.7908 0.00603806V0.00190062Z" fill="#18306C"/>
<path d="M29.0516 53.1361V28.3859C29.0516 28.27 28.9565 28.1748 28.8406 28.1748H17.4731C17.3531 28.1748 17.2538 28.2741 17.2579 28.3983C17.6718 41.1313 22.6541 51.7788 28.7868 53.3512C28.9192 53.3844 29.0516 53.2809 29.0516 53.1402V53.1361Z" fill="#18306C"/>
<path d="M4.00048 28.4024C4.65845 39.236 11.6395 48.3275 21.2482 51.9484C21.451 52.0229 21.6248 51.7829 21.4883 51.6174C17.3832 46.6309 14.6396 38.2139 14.3541 28.3817C14.3541 28.2658 14.2589 28.1748 14.1431 28.1748H4.21567C4.09152 28.1748 3.99221 28.2783 4.00048 28.4024Z" fill="#18306C"/>
<path d="M32.2143 53.2531C38.2063 51.4117 43.0314 40.9173 43.4411 28.3953C43.4411 28.2753 43.3459 28.1719 43.2259 28.1719H32.1564C32.0405 28.1719 31.9453 28.267 31.9453 28.3829V53.0421C31.9453 53.1828 32.0819 53.2904 32.2184 53.249L32.2143 53.2531Z" fill="#18306C"/>
<path d="M31.9455 0.303014V25.0656C31.9455 25.1815 32.0407 25.2767 32.1566 25.2767H43.2302C43.3503 25.2767 43.4496 25.1774 43.4454 25.0532C43.0606 12.4857 38.2272 1.93758 32.2145 0.0919676C32.078 0.0505862 31.9414 0.158178 31.9414 0.298875L31.9455 0.303014Z" fill="#18306C"/>
<path d="M39.2973 52.1151C49.1378 48.6101 56.3257 39.4028 56.992 28.3995C57.0003 28.2753 56.9009 28.1719 56.7768 28.1719H46.5515C46.4356 28.1719 46.3445 28.2629 46.3404 28.3788C46.0507 38.3227 43.2492 46.8183 39.0656 51.78C38.929 51.9455 39.0945 52.1896 39.2973 52.1151Z" fill="#18306C"/>
</g>
<defs>
<filter id="filter0_d_2_1885" x="0" y="0" width="60.998" height="61.3574" filterUnits="userSpaceOnUse" color-interpolation-filters="sRGB">
<feFlood flood-opacity="0" result="BackgroundImageFix"/>
<feColorMatrix in="SourceAlpha" type="matrix" values="0 0 0 0 0 0 0 0 0 0 0 0 0 0 0 0 0 0 127 0" result="hardAlpha"/>
<feOffset dy="4"/>
<feGaussianBlur stdDeviation="2"/>
<feComposite in2="hardAlpha" operator="out"/>
<feColorMatrix type="matrix" values="0 0 0 0 0 0 0 0 0 0 0 0 0 0 0 0 0 0 0.25 0"/>
<feBlend mode="normal" in2="BackgroundImageFix" result="effect1_dropShadow_2_1885"/>
<feBlend mode="normal" in="SourceGraphic" in2="effect1_dropShadow_2_1885" result="shape"/>
</filter>
</defs>
</svg>
