<?xml version="1.0" encoding="utf-8"?><svg viewBox="0 0 200 36" xmlns="http://www.w3.org/2000/svg" xmlns:xlink="http://www.w3.org/1999/xlink"><style>:root>svg{display:none}:root>svg:target{display:block}</style><svg fill="none" viewBox="0 0 21 16" id="arrow" xmlns="http://www.w3.org/2000/svg"><path d="M1 7a1 1 0 0 0 0 2V7Zm19.092 1.707a1 1 0 0 0 0-1.414L13.728.929a1 1 0 1 0-1.414 1.414L17.97 8l-5.657 5.657a1 1 0 0 0 1.414 1.414l6.364-6.364ZM1 9h18.385V7H1v2Z" fill="#F2683C"/></svg><svg viewBox="0 0 448 512" id="check" xmlns="http://www.w3.org/2000/svg"><!--!Font Awesome Free 6.5.1 by @fontawesome - https://fontawesome.com License - https://fontawesome.com/license/free Copyright 2023 Fonticons, Inc.--><path fill="#fff" d="M438.6 105.4c12.5 12.5 12.5 32.8 0 45.3l-256 256c-12.5 12.5-32.8 12.5-45.3 0l-128-128c-12.5-12.5-12.5-32.8 0-45.3s32.8-12.5 45.3 0L160 338.7l233.4-233.3c12.5-12.5 32.8-12.5 45.3 0z"/></svg><svg fill="none" viewBox="0 0 8 9" id="close" xmlns="http://www.w3.org/2000/svg"><rect x=".818" y=".611" width="10" height="1" rx=".5" transform="rotate(45 .818 .61)" fill="#fff"/><rect x=".111" y="7.682" width="10" height="1" rx=".5" transform="rotate(-45 .111 7.682)" fill="#fff"/></svg><svg viewBox="0 0 200 36" id="logo" xmlns="http://www.w3.org/2000/svg"><path d="M157.841 16.608C157.402 9.35 152.678 3.27 146.2.921c-.131-.05-.247.113-.156.222 2.735 3.315 4.557 8.93 4.735 15.482 0 .077.063.137.14.137h6.777a.141.141 0 0 0 .142-.15l.003-.004ZM134.067 1.03c-6.33 2.42-10.922 8.427-11.356 15.58a.143.143 0 0 0 .143.15h6.582a.14.14 0 0 0 .139-.137c.176-6.483 1.965-12.046 4.653-15.374.091-.11-.027-.272-.159-.22h-.002ZM139.142.001c-4.077 1.046-7.388 8.137-7.646 16.612 0 .08.063.148.143.148h7.539a.14.14 0 0 0 .14-.14V.144a.144.144 0 0 0-.176-.14V.001ZM139.315 35.227V18.82a.14.14 0 0 0-.14-.14h-7.536a.143.143 0 0 0-.143.148c.275 8.441 3.578 15.5 7.644 16.543a.143.143 0 0 0 .175-.14v-.003ZM122.707 18.83c.437 7.182 5.065 13.21 11.435 15.61.135.05.25-.11.159-.22-2.721-3.305-4.54-8.886-4.729-15.404a.139.139 0 0 0-.14-.137h-6.582a.143.143 0 0 0-.143.15ZM141.417 35.305c3.972-1.22 7.171-8.178 7.443-16.48a.146.146 0 0 0-.143-.148h-7.339a.14.14 0 0 0-.14.14v16.348c0 .094.091.165.181.138l-.002.002ZM141.233.201v16.417c0 .077.063.14.14.14h7.342a.143.143 0 0 0 .142-.148c-.255-8.332-3.459-15.325-7.445-16.549a.143.143 0 0 0-.182.138l.003.002ZM146.113 34.55c6.524-2.323 11.289-8.427 11.731-15.722a.143.143 0 0 0-.143-.151h-6.779a.14.14 0 0 0-.14.137c-.192 6.593-2.049 12.225-4.823 15.514-.091.11.019.272.154.223ZM35.374 17.687C35.374 7.934 27.441 0 17.687 0 7.934 0 0 7.934 0 17.687c0 9.754 7.934 17.687 17.687 17.687 9.754 0 17.687-7.933 17.687-17.687ZM17.687 28.52c-5.972 0-10.832-4.86-10.832-10.832s4.86-10.832 10.832-10.832 10.832 4.86 10.832 10.832-4.86 10.832-10.832 10.832ZM53.054 34.92h6.818V7.145h12.237V.907H40.816v6.237h12.238v27.777ZM87.61.454h-6.883V34.92h6.883V20.402h18.431v14.519h6.885V.454h-6.885v13.965H87.61V.454ZM193.548 25.136 174.503.454h-6.702V34.92h6.455V10.29l19.042 24.63H200V.454h-6.452v24.682Z"/></svg><svg fill="none" viewBox="0 0 10 9" id="menu" xmlns="http://www.w3.org/2000/svg"><rect y="4" width="10" height="1" rx=".5" fill="#fff"/><rect width="10" height="1" rx=".5" fill="#fff"/><rect y="8" width="10" height="1" rx=".5" fill="#fff"/></svg><svg fill="none" viewBox="0 0 17 18" id="nav" xmlns="http://www.w3.org/2000/svg"><path d="M15.875 10.132a1.132 1.132 0 0 0 0-2.264v2.264ZM1.199 8.2a1.132 1.132 0 0 0 0 1.6l7.205 7.205a1.132 1.132 0 0 0 1.6-1.601L3.602 9l6.404-6.404A1.132 1.132 0 1 0 8.404.995L1.199 8.2Zm14.676-.332H2v2.264h13.875V7.868Z" fill="#F2683C"/></svg><svg fill="none" viewBox="0 0 42 35" id="volume" xmlns="http://www.w3.org/2000/svg"><path d="M.78 11.579v11.84a1.727 1.727 0 0 0 1.723 1.723h5.692v-1.467c-.001-.89.002-13.284 0-13.82H2.503A1.727 1.727 0 0 0 .78 11.579ZM25.683.091a.747.747 0 0 0-.741.015L9.662 9.29v16.417l15.28 9.183c.114.072.246.11.381.11a.743.743 0 0 0 .734-.733V.729a.743.743 0 0 0-.374-.639v.001ZM41.124 13.471a.734.734 0 0 0-.733.734v6.587a.733.733 0 1 0 1.467 0v-6.587a.734.734 0 0 0-.734-.734ZM37.282 11.414a.734.734 0 0 0-.733.733V22.85a.733.733 0 1 0 1.467 0V12.147a.735.735 0 0 0-.734-.733ZM33.439 9.766a.73.73 0 0 0-.517.215.728.728 0 0 0-.217.519v13.995a.733.733 0 1 0 1.467 0V10.5a.735.735 0 0 0-.733-.734ZM29.597 13.471a.736.736 0 0 0-.734.734v6.587a.735.735 0 0 0 1.467 0v-6.587a.734.734 0 0 0-.733-.734Z" fill="#fff"/></svg></svg>