<?xml version="1.0" encoding="utf-8"?><svg viewBox="0 0 200 36" xmlns="http://www.w3.org/2000/svg" xmlns:xlink="http://www.w3.org/1999/xlink"><style>:root>svg{display:none}:root>svg:target{display:block}</style><svg fill="none" viewBox="0 0 21 16" id="arrow" xmlns="http://www.w3.org/2000/svg"><path d="M1 7a1 1 0 0 0 0 2V7Zm19.092 1.707a1 1 0 0 0 0-1.414L13.728.929a1 1 0 1 0-1.414 1.414L17.97 8l-5.657 5.657a1 1 0 0 0 1.414 1.414l6.364-6.364ZM1 9h18.385V7H1v2Z" fill="#F2683C"/></svg><svg viewBox="0 0 448 512" id="check" xmlns="http://www.w3.org/2000/svg"><!--!Font Awesome Free 6.5.1 by @fontawesome - https://fontawesome.com License - https://fontawesome.com/license/free Copyright 2023 Fonticons, Inc.--><path fill="#fff" d="M438.6 105.4c12.5 12.5 12.5 32.8 0 45.3l-256 256c-12.5 12.5-32.8 12.5-45.3 0l-128-128c-12.5-12.5-12.5-32.8 0-45.3s32.8-12.5 45.3 0L160 338.7l233.4-233.3c12.5-12.5 32.8-12.5 45.3 0z"/></svg><svg fill="none" viewBox="0 0 8 9" id="close" xmlns="http://www.w3.org/2000/svg"><rect x=".818" y=".611" width="10" height="1" rx=".5" transform="rotate(45 .818 .61)" fill="#fff"/><rect x=".111" y="7.682" width="10" height="1" rx=".5" transform="rotate(-45 .111 7.682)" fill="#fff"/></svg><svg fill="none" viewBox="0 0 30 30" id="facebook" xmlns="http://www.w3.org/2000/svg"><path fill-rule="evenodd" clip-rule="evenodd" d="M14.88 0C6.662 0 0 6.662 0 14.88s6.662 14.88 14.88 14.88 14.88-6.662 14.88-14.88S23.098 0 14.88 0Zm1.551 15.534v8.095h-3.35v-8.095h-1.673v-2.79h1.674V11.07c0-2.276.944-3.63 3.63-3.63h2.234v2.79H17.55c-1.045 0-1.114.39-1.114 1.118l-.004 1.396h2.531l-.296 2.79H16.43Z" fill="#fff"/></svg><svg fill="none" viewBox="0 0 31 30" id="instagram" xmlns="http://www.w3.org/2000/svg"><path fill-rule="evenodd" clip-rule="evenodd" d="M15.16 0C6.94 0 .28 6.662.28 14.88S6.94 29.76 15.16 29.76c8.217 0 14.88-6.662 14.88-14.88S23.376 0 15.16 0Zm-3.273 6.992c.847-.038 1.117-.048 3.272-.048h-.002c2.156 0 2.425.01 3.272.048.845.039 1.422.173 1.928.369.522.203.964.474 1.405.915.441.441.713.884.916 1.406.195.505.329 1.081.369 1.926.038.847.048 1.117.048 3.272 0 2.156-.01 2.426-.048 3.272-.04.845-.174 1.421-.369 1.926a3.895 3.895 0 0 1-.916 1.406 3.884 3.884 0 0 1-1.405.916c-.505.196-1.082.33-1.927.369-.846.038-1.116.048-3.272.048-2.155 0-2.425-.01-3.272-.048-.844-.04-1.421-.173-1.926-.37a3.887 3.887 0 0 1-1.405-.915 3.89 3.89 0 0 1-.916-1.406c-.196-.505-.33-1.081-.368-1.926-.039-.847-.048-1.116-.048-3.272 0-2.155.01-2.426.047-3.272.038-.845.172-1.421.37-1.926.203-.522.474-.965.915-1.406a3.886 3.886 0 0 1 1.406-.915c.505-.196 1.081-.33 1.926-.369Z" fill="#fff"/><path fill-rule="evenodd" clip-rule="evenodd" d="M14.448 8.374h.712c2.12 0 2.37.008 3.207.046.774.035 1.194.164 1.473.273.37.144.635.316.913.594.277.277.45.542.593.912.109.28.238.7.274 1.473.038.837.046 1.088.046 3.206s-.008 2.37-.046 3.206c-.036.774-.165 1.194-.274 1.473-.143.37-.316.634-.593.912-.278.278-.542.45-.913.593-.279.11-.7.238-1.473.274-.837.038-1.088.046-3.207.046-2.119 0-2.37-.008-3.207-.046-.773-.036-1.193-.165-1.473-.274a2.457 2.457 0 0 1-.913-.593 2.46 2.46 0 0 1-.594-.913c-.108-.279-.238-.699-.273-1.473-.038-.836-.046-1.087-.046-3.207s.008-2.37.046-3.206c.035-.773.165-1.193.273-1.473.144-.37.316-.635.594-.913.278-.278.542-.45.913-.594.28-.109.7-.238 1.473-.273.732-.033 1.016-.043 2.495-.045v.002Zm4.948 1.318a.952.952 0 1 0 0 1.905.952.952 0 0 0 0-1.906Zm-8.312 5.188a4.076 4.076 0 1 1 8.151 0 4.076 4.076 0 0 1-8.151 0Z" fill="#fff"/><path d="M15.161 12.234a2.645 2.645 0 1 1 0 5.291 2.645 2.645 0 0 1 0-5.29Z" fill="#fff"/></svg><svg fill="none" viewBox="0 0 31 30" id="linkedin" xmlns="http://www.w3.org/2000/svg"><path fill-rule="evenodd" clip-rule="evenodd" d="M15.64 0C7.422 0 .76 6.662.76 14.88s6.662 14.88 14.88 14.88 14.88-6.662 14.88-14.88S23.858 0 15.64 0ZM7.902 12.324h3.372v10.132H7.902V12.324Zm3.595-3.133c-.022-.994-.732-1.75-1.886-1.75s-1.908.756-1.908 1.75c0 .972.732 1.75 1.864 1.75h.022c1.175 0 1.908-.778 1.908-1.75Zm8.058 2.895c2.219 0 3.882 1.448 3.882 4.56v5.81h-3.372v-5.42c0-1.362-.488-2.291-1.709-2.291-.931 0-1.486.626-1.73 1.23-.089.218-.11.52-.11.822v5.659h-3.373s.044-9.181 0-10.132h3.372v1.435c.448-.69 1.25-1.673 3.04-1.673Z" fill="#fff"/></svg><svg viewBox="0 0 200 36" id="logo" xmlns="http://www.w3.org/2000/svg"><path d="M157.841 16.608C157.402 9.35 152.678 3.27 146.2.921c-.131-.05-.247.113-.156.222 2.735 3.315 4.557 8.93 4.735 15.482 0 .077.063.137.14.137h6.777a.141.141 0 0 0 .142-.15l.003-.004ZM134.067 1.03c-6.33 2.42-10.922 8.427-11.356 15.58a.143.143 0 0 0 .143.15h6.582a.14.14 0 0 0 .139-.137c.176-6.483 1.965-12.046 4.653-15.374.091-.11-.027-.272-.159-.22h-.002ZM139.142.001c-4.077 1.046-7.388 8.137-7.646 16.612 0 .08.063.148.143.148h7.539a.14.14 0 0 0 .14-.14V.144a.144.144 0 0 0-.176-.14V.001ZM139.315 35.227V18.82a.14.14 0 0 0-.14-.14h-7.536a.143.143 0 0 0-.143.148c.275 8.441 3.578 15.5 7.644 16.543a.143.143 0 0 0 .175-.14v-.003ZM122.707 18.83c.437 7.182 5.065 13.21 11.435 15.61.135.05.25-.11.159-.22-2.721-3.305-4.54-8.886-4.729-15.404a.139.139 0 0 0-.14-.137h-6.582a.143.143 0 0 0-.143.15ZM141.417 35.305c3.972-1.22 7.171-8.178 7.443-16.48a.146.146 0 0 0-.143-.148h-7.339a.14.14 0 0 0-.14.14v16.348c0 .094.091.165.181.138l-.002.002ZM141.233.201v16.417c0 .077.063.14.14.14h7.342a.143.143 0 0 0 .142-.148c-.255-8.332-3.459-15.325-7.445-16.549a.143.143 0 0 0-.182.138l.003.002ZM146.113 34.55c6.524-2.323 11.289-8.427 11.731-15.722a.143.143 0 0 0-.143-.151h-6.779a.14.14 0 0 0-.14.137c-.192 6.593-2.049 12.225-4.823 15.514-.091.11.019.272.154.223ZM35.374 17.687C35.374 7.934 27.441 0 17.687 0 7.934 0 0 7.934 0 17.687c0 9.754 7.934 17.687 17.687 17.687 9.754 0 17.687-7.933 17.687-17.687ZM17.687 28.52c-5.972 0-10.832-4.86-10.832-10.832s4.86-10.832 10.832-10.832 10.832 4.86 10.832 10.832-4.86 10.832-10.832 10.832ZM53.054 34.92h6.818V7.145h12.237V.907H40.816v6.237h12.238v27.777ZM87.61.454h-6.883V34.92h6.883V20.402h18.431v14.519h6.885V.454h-6.885v13.965H87.61V.454ZM193.548 25.136 174.503.454h-6.702V34.92h6.455V10.29l19.042 24.63H200V.454h-6.452v24.682Z"/></svg><svg fill="none" viewBox="0 0 10 9" id="menu" xmlns="http://www.w3.org/2000/svg"><rect y="4" width="10" height="1" rx=".5" fill="#fff"/><rect width="10" height="1" rx=".5" fill="#fff"/><rect y="8" width="10" height="1" rx=".5" fill="#fff"/></svg><svg fill="none" viewBox="0 0 17 18" id="nav" xmlns="http://www.w3.org/2000/svg"><path d="M15.875 10.132a1.132 1.132 0 0 0 0-2.264v2.264ZM1.199 8.2a1.132 1.132 0 0 0 0 1.6l7.205 7.205a1.132 1.132 0 0 0 1.6-1.601L3.602 9l6.404-6.404A1.132 1.132 0 1 0 8.404.995L1.199 8.2Zm14.676-.332H2v2.264h13.875V7.868Z" fill="#F2683C"/></svg><svg fill="none" viewBox="0 0 30 30" id="twitter" xmlns="http://www.w3.org/2000/svg"><path fill-rule="evenodd" clip-rule="evenodd" d="M14.92 0C6.7 0 .04 6.662.04 14.88S6.7 29.76 14.92 29.76c8.217 0 14.88-6.662 14.88-14.88S23.136 0 14.92 0Zm-.416 12.61-.031-.516c-.094-1.334.728-2.553 2.03-3.026.478-.168 1.29-.189 1.82-.042.21.063.605.273.886.462l.51.347.562-.178c.312-.095.728-.253.916-.358.177-.094.333-.147.333-.115 0 .178-.385.788-.708 1.124-.437.473-.312.515.572.2.531-.179.542-.179.438.02-.063.106-.386.474-.73.81-.582.578-.613.64-.613 1.124 0 .746-.354 2.301-.708 3.152-.656 1.598-2.06 3.247-3.466 4.078-1.977 1.166-4.61 1.46-6.828.777-.739-.231-2.008-.82-2.008-.925 0-.031.385-.073.853-.084a5.86 5.86 0 0 0 2.79-.777l.561-.337-.645-.22c-.916-.315-1.738-1.04-1.946-1.723-.063-.221-.042-.232.541-.232l.604-.01-.51-.242c-.604-.305-1.156-.82-1.426-1.345-.198-.378-.448-1.334-.375-1.408.02-.031.24.032.49.116.717.262.811.2.395-.242-.78-.798-1.02-1.986-.646-3.11l.177-.505.687.683c1.405 1.377 3.06 2.197 4.955 2.438l.52.063Z" fill="#fff"/></svg><svg fill="none" viewBox="0 0 42 35" id="volume" xmlns="http://www.w3.org/2000/svg"><path d="M.78 11.579v11.84a1.727 1.727 0 0 0 1.723 1.723h5.692v-1.467c-.001-.89.002-13.284 0-13.82H2.503A1.727 1.727 0 0 0 .78 11.579ZM25.683.091a.747.747 0 0 0-.741.015L9.662 9.29v16.417l15.28 9.183c.114.072.246.11.381.11a.743.743 0 0 0 .734-.733V.729a.743.743 0 0 0-.374-.639v.001ZM41.124 13.471a.734.734 0 0 0-.733.734v6.587a.733.733 0 1 0 1.467 0v-6.587a.734.734 0 0 0-.734-.734ZM37.282 11.414a.734.734 0 0 0-.733.733V22.85a.733.733 0 1 0 1.467 0V12.147a.735.735 0 0 0-.734-.733ZM33.439 9.766a.73.73 0 0 0-.517.215.728.728 0 0 0-.217.519v13.995a.733.733 0 1 0 1.467 0V10.5a.735.735 0 0 0-.733-.734ZM29.597 13.471a.736.736 0 0 0-.734.734v6.587a.735.735 0 0 0 1.467 0v-6.587a.734.734 0 0 0-.733-.734Z" fill="#fff"/></svg><svg fill="none" viewBox="0 0 31 30" id="youtube" xmlns="http://www.w3.org/2000/svg"><path fill-rule="evenodd" clip-rule="evenodd" d="M15.4 0C7.181 0 .52 6.662.52 14.88S7.182 29.76 15.4 29.76c8.217 0 14.88-6.662 14.88-14.88S23.616 0 15.4 0Zm6.2 9.764c.683.188 1.22.74 1.403 1.441.332 1.271.332 3.923.332 3.923s0 2.651-.332 3.922a2.015 2.015 0 0 1-1.403 1.441c-1.238.34-6.201.34-6.201.34s-4.963 0-6.201-.34a2.015 2.015 0 0 1-1.404-1.44c-.331-1.271-.331-3.923-.331-3.923s0-2.652.331-3.923a2.015 2.015 0 0 1 1.404-1.44c1.238-.341 6.2-.341 6.2-.341s4.964 0 6.202.34Z" fill="#fff"/><path d="M13.912 17.857v-4.96l3.968 2.48-3.968 2.48Z" fill="#fff"/></svg></svg>